HIERARCHY
ROOT Hips
{
	OFFSET 0.053599 88.859886 3.107447
	CHANNELS 6 Xposition Yposition Zposition Zrotation Yrotation Xrotation 
	JOINT Spine
	{
		OFFSET -0.000000 8.814246 -2.080107
		CHANNELS 3 Zrotation Yrotation Xrotation
		JOINT Spine1
		{
			OFFSET 0.000000 8.844141 0.000000
			CHANNELS 3 Zrotation Yrotation Xrotation
			JOINT Spine2
			{
				OFFSET -0.000000 11.682268 0.000000
				CHANNELS 3 Zrotation Yrotation Xrotation
				JOINT Spine3
				{
					OFFSET 0.000000 11.746700 0.000000
					CHANNELS 3 Zrotation Yrotation Xrotation
					JOINT Neck
					{
						OFFSET -0.000000 17.658264 -0.000000
						CHANNELS 3 Zrotation Yrotation Xrotation
						JOINT Neck1
						{
							OFFSET -0.000000 5.101515 -0.000000
							CHANNELS 3 Zrotation Yrotation Xrotation
							JOINT Head
							{
								OFFSET 0.000000 5.101515 0.000000
								CHANNELS 3 Zrotation Yrotation Xrotation
								JOINT HeadEnd
								{
									OFFSET 0.000000 11.655085 0.000000
									CHANNELS 3 Zrotation Yrotation Xrotation
									End Site
									{
										OFFSET 0.000000 0.000000 0.000000
									}
								}
							}
						}
					}
					JOINT RightShoulder
					{
						OFFSET -2.625389 11.175210 0.000000
						CHANNELS 3 Zrotation Yrotation Xrotation
						JOINT RightArm
						{
							OFFSET -0.000000 10.434715 -0.000000
							CHANNELS 3 Zrotation Yrotation Xrotation
							JOINT RightForeArm
							{
								OFFSET -0.000000 29.628420 0.000000
								CHANNELS 3 Zrotation Yrotation Xrotation
								JOINT RightHand
								{
									OFFSET -0.000000 22.857611 0.000000
									CHANNELS 3 Zrotation Yrotation Xrotation
									JOINT RightHandThumb1
									{
										OFFSET -2.867323 3.959563 2.944291
										CHANNELS 3 Zrotation Yrotation Xrotation
										JOINT RightHandThumb2
										{
											OFFSET 0.000000 3.350399 0.000000
											CHANNELS 3 Zrotation Yrotation Xrotation
											JOINT RightHandThumb3
											{
												OFFSET 0.000000 3.756509 -0.000000
												CHANNELS 3 Zrotation Yrotation Xrotation
												JOINT RightHandThumb4
												{
													OFFSET 0.000000 3.147345 0.000000
													CHANNELS 3 Zrotation Yrotation Xrotation
													End Site
													{
														OFFSET 0.000000 0.000000 0.000000
													}
												}
											}
										}
									}
									JOINT RightHandIndex1
									{
										OFFSET -0.086752 10.030893 2.345280
										CHANNELS 3 Zrotation Yrotation Xrotation
										JOINT RightHandIndex2
										{
											OFFSET -0.000000 4.061090 0.000000
											CHANNELS 3 Zrotation Yrotation Xrotation
											JOINT RightHandIndex3
											{
												OFFSET -0.000000 3.248873 0.000000
												CHANNELS 3 Zrotation Yrotation Xrotation
												JOINT RightHandIndex4
												{
													OFFSET 0.000000 2.639709 -0.000000
													CHANNELS 3 Zrotation Yrotation Xrotation
													End Site
													{
														OFFSET 0.000000 0.000000 0.000000
													}
												}
											}
										}
									}
									JOINT RightHandMiddle1
									{
										OFFSET 0.104102 9.502952 0.006768
										CHANNELS 3 Zrotation Yrotation Xrotation
										JOINT RightHandMiddle2
										{
											OFFSET 0.000000 4.568727 0.000000
											CHANNELS 3 Zrotation Yrotation Xrotation
											JOINT RightHandMiddle3
											{
												OFFSET 0.000000 3.654981 -0.000000
												CHANNELS 3 Zrotation Yrotation Xrotation
												JOINT RightHandMiddle4
												{
													OFFSET -0.000000 2.741236 -0.000000
													CHANNELS 3 Zrotation Yrotation Xrotation
													End Site
													{
														OFFSET 0.000000 0.000000 0.000000
													}
												}
											}
										}
									}
									JOINT RightHandRing1
									{
										OFFSET 0.086752 8.921708 -2.267442
										CHANNELS 3 Zrotation Yrotation Xrotation
										JOINT RightHandRing2
										{
											OFFSET -0.000000 4.061090 0.000000
											CHANNELS 3 Zrotation Yrotation Xrotation
											JOINT RightHandRing3
											{
												OFFSET 0.000000 3.654981 -0.000000
												CHANNELS 3 Zrotation Yrotation Xrotation
												JOINT RightHandRing4
												{
													OFFSET 0.000000 2.741236 -0.000000
													CHANNELS 3 Zrotation Yrotation Xrotation
													End Site
													{
														OFFSET 0.000000 0.000000 0.000000
													}
												}
											}
										}
									}
									JOINT RightHandPinky1
									{
										OFFSET -0.173504 7.976997 -4.467199
										CHANNELS 3 Zrotation Yrotation Xrotation
										JOINT RightHandPinky2
										{
											OFFSET 0.000000 3.350399 -0.000000
											CHANNELS 3 Zrotation Yrotation Xrotation
											JOINT RightHandPinky3
											{
												OFFSET -0.000000 2.842763 0.000000
												CHANNELS 3 Zrotation Yrotation Xrotation
												JOINT RightHandPinky4
												{
													OFFSET -0.000000 2.639709 0.000000
													CHANNELS 3 Zrotation Yrotation Xrotation
													End Site
													{
														OFFSET 0.000000 0.000000 0.000000
													}
												}
											}
										}
									}
									JOINT RightForeArmEnd
									{
										OFFSET 0.000000 0.000000 0.000000
										CHANNELS 3 Zrotation Yrotation Xrotation
										End Site
										{
											OFFSET 0.000000 0.000000 0.000000
										}
									}
								}
								JOINT RightArmEnd
								{
									OFFSET 0.000000 0.000000 0.000000
									CHANNELS 3 Zrotation Yrotation Xrotation
									End Site
									{
										OFFSET 0.000000 0.000000 0.000000
									}
								}
							}
						}
					}
					JOINT LeftShoulder
					{
						OFFSET 2.625389 11.175210 0.000000
						CHANNELS 3 Zrotation Yrotation Xrotation
						JOINT LeftArm
						{
							OFFSET 0.000000 10.813635 -0.000000
							CHANNELS 3 Zrotation Yrotation Xrotation
							JOINT LeftForeArm
							{
								OFFSET 0.000000 28.724781 0.000000
								CHANNELS 3 Zrotation Yrotation Xrotation
								JOINT LeftHand
								{
									OFFSET 0.644384 25.716167 -0.328871
									CHANNELS 3 Zrotation Yrotation Xrotation
									JOINT LeftHandThumb1
									{
										OFFSET 2.867323 3.959563 2.944291
										CHANNELS 3 Zrotation Yrotation Xrotation
										JOINT LeftHandThumb2
										{
											OFFSET 0.000000 3.350399 0.000000
											CHANNELS 3 Zrotation Yrotation Xrotation
											JOINT LeftHandThumb3
											{
												OFFSET -0.000000 3.756509 0.000000
												CHANNELS 3 Zrotation Yrotation Xrotation
												JOINT LeftHandThumb4
												{
													OFFSET -0.000000 3.100000 0.000000
													CHANNELS 3 Zrotation Yrotation Xrotation
													End Site
													{
														OFFSET 0.000000 0.000000 0.000000
													}
												}
											}
										}
									}
									JOINT LeftHandIndex1
									{
										OFFSET 0.086752 10.030893 2.345280
										CHANNELS 3 Zrotation Yrotation Xrotation
										JOINT LeftHandIndex2
										{
											OFFSET -0.000000 4.061090 -0.000000
											CHANNELS 3 Zrotation Yrotation Xrotation
											JOINT LeftHandIndex3
											{
												OFFSET 0.000000 3.248873 -0.000000
												CHANNELS 3 Zrotation Yrotation Xrotation
												JOINT LeftHandIndex4
												{
													OFFSET 0.000000 2.639709 -0.000000
													CHANNELS 3 Zrotation Yrotation Xrotation
													End Site
													{
														OFFSET 0.000000 0.000000 0.000000
													}
												}
											}
										}
									}
									JOINT LeftHandMiddle1
									{
										OFFSET -0.104102 9.502952 0.006768
										CHANNELS 3 Zrotation Yrotation Xrotation
										JOINT LeftHandMiddle2
										{
											OFFSET -0.000000 4.568727 -0.000000
											CHANNELS 3 Zrotation Yrotation Xrotation
											JOINT LeftHandMiddle3
											{
												OFFSET 0.000000 3.654981 0.000000
												CHANNELS 3 Zrotation Yrotation Xrotation
												JOINT LeftHandMiddle4
												{
													OFFSET 0.000000 2.741236 -0.000000
													CHANNELS 3 Zrotation Yrotation Xrotation
													End Site
													{
														OFFSET 0.000000 0.000000 0.000000
													}
												}
											}
										}
									}
									JOINT LeftHandRing1
									{
										OFFSET -0.086752 8.921708 -2.267442
										CHANNELS 3 Zrotation Yrotation Xrotation
										JOINT LeftHandRing2
										{
											OFFSET 0.000000 4.061090 0.000000
											CHANNELS 3 Zrotation Yrotation Xrotation
											JOINT LeftHandRing3
											{
												OFFSET 0.000000 3.654981 0.000000
												CHANNELS 3 Zrotation Yrotation Xrotation
												JOINT LeftHandRing4
												{
													OFFSET 0.000000 2.741236 0.000000
													CHANNELS 3 Zrotation Yrotation Xrotation
													End Site
													{
														OFFSET 0.000000 0.000000 0.000000
													}
												}
											}
										}
									}
									JOINT LeftHandPinky1
									{
										OFFSET 0.173504 7.976997 -4.467199
										CHANNELS 3 Zrotation Yrotation Xrotation
										JOINT LeftHandPinky2
										{
											OFFSET -0.000000 3.350399 -0.000000
											CHANNELS 3 Zrotation Yrotation Xrotation
											JOINT LeftHandPinky3
											{
												OFFSET 0.000000 2.842763 0.000000
												CHANNELS 3 Zrotation Yrotation Xrotation
												JOINT LeftHandPinky4
												{
													OFFSET -0.000000 2.639709 -0.000000
													CHANNELS 3 Zrotation Yrotation Xrotation
													End Site
													{
														OFFSET 0.000000 0.000000 0.000000
													}
												}
											}
										}
									}
									JOINT LeftForeArmEnd
									{
										OFFSET 0.000000 0.000000 0.000000
										CHANNELS 3 Zrotation Yrotation Xrotation
										End Site
										{
											OFFSET 0.000000 0.000000 0.000000
										}
									}
								}
								JOINT LeftArmEnd
								{
									OFFSET 0.000000 0.000000 0.000000
									CHANNELS 3 Zrotation Yrotation Xrotation
									End Site
									{
										OFFSET 0.000000 0.000000 0.000000
									}
								}
							}
						}
					}
				}
			}
		}
	}
	JOINT RightUpLeg
	{
		OFFSET -11.289943 0.000000 0.000000
		CHANNELS 3 Zrotation Yrotation Xrotation
		JOINT RightLeg
		{
			OFFSET 0.000000 -38.200325 0.000000
			CHANNELS 3 Zrotation Yrotation Xrotation
			JOINT RightFoot
			{
				OFFSET -0.000000 -39.900856 -0.000000
				CHANNELS 3 Zrotation Yrotation Xrotation
				JOINT RightToeBase
				{
					OFFSET 0.000000 0.000000 15.261641
					CHANNELS 3 Zrotation Yrotation Xrotation
					JOINT RightToeBaseEnd
					{
						OFFSET 0.000000 0.000000 7.370709
						CHANNELS 3 Zrotation Yrotation Xrotation
						End Site
						{
							OFFSET 0.000000 0.000000 0.000000
						}
					}
				}
				JOINT RightLegEnd
				{
					OFFSET 0.000000 0.000000 0.000000
					CHANNELS 3 Zrotation Yrotation Xrotation
					End Site
					{
						OFFSET 0.000000 0.000000 0.000000
					}
				}
			}
			JOINT RightUpLegEnd
			{
				OFFSET 0.000000 0.000000 0.000000
				CHANNELS 3 Zrotation Yrotation Xrotation
				End Site
				{
					OFFSET 0.000000 0.000000 0.000000
				}
			}
		}
	}
	JOINT LeftUpLeg
	{
		OFFSET 11.315661 -0.000000 0.000000
		CHANNELS 3 Zrotation Yrotation Xrotation
		JOINT LeftLeg
		{
			OFFSET -0.000000 -38.200325 -0.000000
			CHANNELS 3 Zrotation Yrotation Xrotation
			JOINT LeftFoot
			{
				OFFSET 0.000000 -39.900856 -0.000000
				CHANNELS 3 Zrotation Yrotation Xrotation
				JOINT LeftToeBase
				{
					OFFSET -0.000000 -0.000000 15.261641
					CHANNELS 3 Zrotation Yrotation Xrotation
					JOINT LeftToeBaseEnd
					{
						OFFSET 0.000000 -0.000000 7.539996
						CHANNELS 3 Zrotation Yrotation Xrotation
						End Site
						{
							OFFSET 0.000000 0.000000 0.000000
						}
					}
				}
				JOINT LeftLegEnd
				{
					OFFSET 0.000000 0.000000 0.000000
					CHANNELS 3 Zrotation Yrotation Xrotation
					End Site
					{
						OFFSET 0.000000 0.000000 0.000000
					}
				}
			}
			JOINT LeftUpLegEnd
			{
				OFFSET 0.000000 0.000000 0.000000
				CHANNELS 3 Zrotation Yrotation Xrotation
				End Site
				{
					OFFSET 0.000000 0.000000 0.000000
				}
			}
		}
	}
}
MOTION
Frames: 4
Frame Time: 0.016667
0.248827 88.961555 2.993052 -0.110394 -0.810901 -10.279871 1.056572 0.005671 6.786305 -0.805106 0.324997 3.169188 0.163769 -0.802415 3.959521 -1.055046 0.172563 4.609838 1.420283 0.559573 4.623764 0.573962 1.349195 -3.551462 -0.444036 -1.021417 -19.699686 0.000000 0.000000 0.000000 92.513222 -0.414176 9.466953 68.734299 -24.332747 1.989287 0.091312 16.656355 29.374218 -11.716622 2.304537 -4.245185 15.612391 31.633333 66.462616 -3.345530 -3.958510 -7.366853 -2.367961 -2.632943 -4.985127 0.000000 0.000000 0.000000 -21.913486 -5.171394 11.742499 0.709426 0.529964 0.450339 0.458048 0.080926 0.464718 0.000000 0.000000 0.000000 -20.698507 0.103143 7.013477 -0.158414 0.526339 0.139880 0.372553 0.026880 0.131321 0.000000 0.000000 0.000000 -18.607807 7.675354 1.739555 0.390881 -1.031524 -0.285098 0.377136 -0.044417 -0.169072 0.000000 0.000000 0.000000 -17.232916 15.702101 -4.378496 0.733830 -2.025771 -0.789853 0.685386 -0.039530 -0.643481 0.000000 0.000000 0.000000 0.000000 0.000000 0.000000 0.000000 0.000000 0.000000 -89.638641 0.156960 5.023533 -72.153122 15.019459 -6.822687 -0.476857 -11.615101 55.748760 16.724545 -8.422688 -9.531216 -14.824986 -31.941727 67.310066 2.399762 2.303367 -4.668494 1.603747 1.584540 -3.290199 0.000000 0.000000 0.000000 24.063837 -13.142493 18.011858 -0.448123 0.547739 -0.390188 -0.465818 0.086293 -0.407647 0.000000 0.000000 0.000000 22.821177 -7.592682 11.990928 -0.558012 0.531742 -0.162179 -0.677467 0.040497 -0.125126 0.000000 0.000000 0.000000 18.988018 1.111355 4.414131 -1.859978 -1.063151 0.303003 -2.002495 -0.052589 0.221082 0.000000 0.000000 0.000000 13.155251 11.162565 -3.777903 -3.442027 -2.052561 1.041978 -3.156019 -0.012028 0.913904 0.000000 0.000000 0.000000 0.000000 0.000000 0.000000 0.000000 0.000000 0.000000 -0.832771 -9.546723 14.505367 -0.060887 -0.674795 4.923090 -2.838770 -7.731683 17.699072 -0.817401 0.758905 -18.720144 0.000000 0.000000 0.000000 0.000000 0.000000 0.000000 0.000000 0.000000 0.000000 -1.585141 -5.838718 9.575745 0.068014 0.342919 9.232719 3.982558 -0.260806 17.394566 0.280627 -0.444508 -20.943445 0.000000 0.000000 0.000000 0.000000 0.000000 0.000000 0.000000 0.000000 0.000000 
0.255257 88.964340 2.991508 -0.079334 -0.799751 -10.315331 1.037230 0.009701 6.795074 -0.811276 0.330283 3.176719 0.149338 -0.786536 3.994129 -1.054627 0.172358 4.619819 1.472019 0.520868 4.639447 0.581438 1.324913 -3.554409 -0.436067 -1.031605 -19.693218 0.000000 0.000000 0.000000 92.565727 -0.426987 9.455386 68.661003 -24.168909 1.940129 0.106966 16.825247 29.593832 -11.729680 2.485346 -4.165895 15.641022 31.621954 66.430099 -3.388440 -4.013631 -7.469004 -2.399536 -2.671479 -5.052400 0.000000 0.000000 0.000000 -21.682865 -5.203638 11.724065 0.686657 0.531891 0.442480 0.432669 0.083304 0.460181 0.000000 0.000000 0.000000 -20.461170 0.068172 7.015050 -0.176696 0.527444 0.136703 0.360590 0.027876 0.129057 0.000000 0.000000 0.000000 -18.340893 7.631855 1.765493 0.393207 -1.032870 -0.281113 0.366689 -0.045510 -0.165540 0.000000 0.000000 0.000000 -16.944023 15.664248 -4.340693 0.756766 -2.028893 -0.775000 0.702765 -0.044009 -0.628860 0.000000 0.000000 0.000000 0.000000 0.000000 0.000000 0.000000 0.000000 0.000000 -89.668259 0.172891 4.979583 -72.034752 14.818035 -6.839900 -0.497902 -11.683362 56.029358 16.749159 -8.768861 -9.452431 -14.852498 -31.932638 67.284004 2.437518 2.356865 -4.753870 1.630740 1.617989 -3.352179 0.000000 0.000000 0.000000 23.894337 -13.109535 18.008162 -0.415680 0.549928 -0.379772 -0.440393 0.088548 -0.398248 0.000000 0.000000 0.000000 22.627375 -7.562634 12.000981 -0.539482 0.532668 -0.158060 -0.659273 0.041418 -0.122297 0.000000 0.000000 0.000000 18.740314 1.148872 4.425750 -1.862379 -1.064417 0.299458 -2.002314 -0.053576 0.218753 0.000000 0.000000 0.000000 12.860222 11.207547 -3.772075 -3.482725 -2.054430 1.035761 -3.190576 -0.014000 0.908725 0.000000 0.000000 0.000000 0.000000 0.000000 0.000000 0.000000 0.000000 0.000000 -0.882492 -9.556776 14.547543 -0.061768 -0.679619 4.913676 -2.827886 -7.745814 17.689516 -0.821753 0.760825 -18.716551 0.000000 0.000000 0.000000 0.000000 0.000000 0.000000 0.000000 0.000000 0.000000 -1.612162 -5.808184 9.609690 0.067345 0.340889 9.214320 3.995305 -0.257230 17.399952 0.275475 -0.442900 -20.942595 0.000000 0.000000 0.000000 0.000000 0.000000 0.000000 0.000000 0.000000 0.000000 
0.261544 88.966797 2.989678 -0.050852 -0.791742 -10.349751 1.017958 0.013995 6.807512 -0.818014 0.335460 3.182135 0.137008 -0.771660 4.029540 -1.052594 0.171459 4.625660 1.531236 0.481485 4.656611 0.587075 1.301002 -3.552882 -0.427871 -1.039788 -19.681524 0.000000 0.000000 0.000000 92.622856 -0.438813 9.448639 68.588554 -24.025850 1.901072 0.122173 16.976923 29.764343 -11.675175 2.672715 -4.145181 15.678186 31.607542 66.388298 -3.441177 -4.086303 -7.597286 -2.439198 -2.721537 -5.138807 0.000000 0.000000 0.000000 -21.382128 -5.248376 11.672128 0.662793 0.533969 0.434098 0.406279 0.085809 0.455322 0.000000 0.000000 0.000000 -20.155584 0.021622 6.992129 -0.195581 0.528569 0.133362 0.346246 0.028850 0.126671 0.000000 0.000000 0.000000 -18.012304 7.578391 1.780707 0.392314 -1.034238 -0.277423 0.353232 -0.046594 -0.162149 0.000000 0.000000 0.000000 -16.599667 15.617929 -4.300068 0.776665 -2.032257 -0.761243 0.716212 -0.048592 -0.615000 0.000000 0.000000 0.000000 0.000000 0.000000 0.000000 0.000000 0.000000 0.000000 -89.699181 0.187111 4.947443 -71.930183 14.646523 -6.846618 -0.517605 -11.739940 56.245728 16.733311 -9.107900 -9.421083 -14.881052 -31.922796 67.256058 2.477678 2.413316 -4.844068 1.659473 1.653549 -3.417805 0.000000 0.000000 0.000000 23.701334 -13.071760 17.984730 -0.387773 0.551955 -0.370249 -0.419184 0.090628 -0.389381 0.000000 0.000000 0.000000 22.410208 -7.528454 11.996601 -0.524992 0.533438 -0.154227 -0.644540 0.042197 -0.119765 0.000000 0.000000 0.000000 18.473677 1.189873 4.432398 -1.867882 -1.065501 0.295906 -2.003594 -0.054459 0.216509 0.000000 0.000000 0.000000 12.551560 11.252645 -3.760556 -3.522450 -2.056332 1.028185 -3.226531 -0.016330 0.902692 0.000000 0.000000 0.000000 0.000000 0.000000 0.000000 0.000000 0.000000 0.000000 -0.931378 -9.564569 14.587417 -0.062616 -0.684310 4.906022 -2.814088 -7.757935 17.677021 -0.825414 0.763129 -18.709749 0.000000 0.000000 0.000000 0.000000 0.000000 0.000000 0.000000 0.000000 0.000000 -1.635256 -5.777022 9.642585 0.066838 0.339548 9.192774 4.008342 -0.255566 17.404980 0.271528 -0.441986 -20.939861 0.000000 0.000000 0.000000 0.000000 0.000000 0.000000 0.000000 0.000000 0.000000 
0.267524 88.969009 2.987941 -0.025405 -0.787539 -10.382849 0.999009 0.018306 6.823328 -0.825908 0.340365 3.184618 0.127938 -0.760304 4.068154 -1.049216 0.169052 4.627408 1.597242 0.441776 4.675213 0.590710 1.277689 -3.546886 -0.419468 -1.045685 -19.664118 0.000000 0.000000 0.000000 92.685791 -0.449927 9.446078 68.518448 -23.895752 1.876608 0.136568 17.110443 29.887054 -11.559246 2.870862 -4.182878 15.724677 31.589787 66.336464 -3.504710 -4.177924 -7.753963 -2.487637 -2.783954 -5.246326 0.000000 0.000000 0.000000 -21.010832 -5.305895 11.580953 0.636362 0.536217 0.425381 0.377467 0.088448 0.450267 0.000000 0.000000 0.000000 -19.779486 -0.036913 6.939416 -0.216308 0.529744 0.129963 0.328113 0.029828 0.124282 0.000000 0.000000 0.000000 -17.614182 7.514215 1.780899 0.387912 -1.035632 -0.274214 0.336256 -0.047647 -0.159076 0.000000 0.000000 0.000000 -16.188148 15.562407 -4.261002 0.793593 -2.035860 -0.749134 0.725536 -0.053230 -0.602387 0.000000 0.000000 0.000000 0.000000 0.000000 0.000000 0.000000 0.000000 0.000000 -89.735336 0.199715 4.926929 -71.840042 14.498430 -6.844055 -0.537131 -11.783221 56.400936 16.687984 -9.442381 -9.437257 -14.912384 -31.911558 67.224663 2.522141 2.475681 -4.943633 1.691460 1.693472 -3.490547 0.000000 0.000000 0.000000 23.479666 -13.028737 17.929018 -0.363658 0.553691 -0.362157 -0.401464 0.092375 -0.381534 0.000000 0.000000 0.000000 22.162643 -7.489196 11.966866 -0.514050 0.534007 -0.150881 -0.632438 0.042802 -0.117678 0.000000 0.000000 0.000000 18.176376 1.236594 4.424733 -1.876353 -1.066350 0.292605 -2.006318 -0.055167 0.214545 0.000000 0.000000 0.000000 12.214836 11.301284 -3.751971 -3.561588 -2.057999 1.019645 -3.264589 -0.018764 0.896314 0.000000 0.000000 0.000000 0.000000 0.000000 0.000000 0.000000 0.000000 0.000000 -0.978082 -9.569414 14.624436 -0.063373 -0.688708 4.899750 -2.798721 -7.769479 17.664719 -0.828403 0.765726 -18.700539 0.000000 0.000000 0.000000 0.000000 0.000000 0.000000 0.000000 0.000000 0.000000 -1.655452 -5.745716 9.673127 0.066476 0.338713 9.169738 4.023346 -0.254530 17.410524 0.268570 -0.441532 -20.935396 0.000000 0.000000 0.000000 0.000000 0.000000 0.000000 0.000000 0.000000 0.000000 
